<!--Generated by EdrawMax, SVG Export 绘图3.svg 页-1-->
<svg xmlns:ed="https://www.edrawsoft.cn/xml/2017/SVGExtensions/" width="1132" xmlns:xlink="http://www.w3.org/1999/xlink" viewBox="0 0 1132 804" height="804" xmlns="http://www.w3.org/2000/svg" xmlns:ev="http://www.w3.org/2001/xml-events"><defs><marker refY="4" id="edrawArrow_4_1" refX="1" orient="auto-start-reverse" ed:arrow="4" markerWidth="10" markerHeight="10" markerUnits="userSpaceOnUse"><path stroke-width="1" stroke-linecap="round" fill="context-stroke" stroke="context-stroke" d="M1.0,1.0L7.0,4.0L1.0,7.0L1.0,1.0"/></marker></defs><g transform="translate(5.5,5.5)" ed:name="页-1" id="page1"><rect width="1123" x="0" height="794" fill="none" y="0"/><g transform="translate(264.983756,161.131234)" id="shape1"><text style="fill:#191919;font-family:Symbol,PingFang SC,Microsoft YaHei,Arial;font-size:20px" xml:space="preserve"><tspan textLength="15.0" style="font-size:13px" x="4.2" y="19.0">   ·</tspan><tspan textLength="104.0" style="font-family:微软雅黑,PingFang SC,Microsoft YaHei,Arial;font-size:13px" x="19.2">玩家进行游戏条件</tspan></text></g><g transform="translate(272.946442,188.131234)" id="shape2"><text style="fill:#191919;font-family:Symbol,PingFang SC,Microsoft YaHei,Arial;font-size:20px" xml:space="preserve"><tspan textLength="6.0" style="font-size:13px" x="5.0" y="19.0">·</tspan><tspan textLength="104.0" style="font-family:微软雅黑,PingFang SC,Microsoft YaHei,Arial;font-size:13px" x="11.0">玩家当前状态判断</tspan></text></g><g transform="translate(737.424486,152.476329)" id="group3"><path stroke-width="1" id="shape4" stroke="#101843" d="M.0,.0L113.0,.0L113.0,75.6L.0,75.6L.0,.0z" fill="none"/><g id="shape5"><path fill-rule="nonzero" stroke-width="1" fill="#ff7979" d="M113.0,28.0L113.0,.0L.0,.0L.0,28.0L113.0,28.0z" stroke="#101843"/><text style="fill:#191919;font-family:微软雅黑,PingFang SC,Microsoft YaHei,Arial;font-size:20px" xml:space="preserve"><tspan textLength="65.0" style="font-size:13px" x="24.0" y="19.5">玩家输入层</tspan></text></g></g><g transform="translate(737.424486,191.566880)" id="shape6"><text style="fill:#191919;font-family:Symbol,PingFang SC,Microsoft YaHei,Arial;font-size:20px" xml:space="preserve"><tspan textLength="6.0" style="font-size:13px" x="4.0" y="19.0">·</tspan><tspan textLength="91.0" style="font-family:微软雅黑,PingFang SC,Microsoft YaHei,Arial;font-size:13px" x="10.0">由玩家本人做出</tspan></text></g><g transform="translate(630.653047,273.964518)" id="group7"><path stroke-width="1" id="shape8" stroke="#101843" d="M.0,.0L113.0,.0L113.0,75.6L.0,75.6L.0,.0z" fill="none"/><g id="shape9"><path fill-rule="nonzero" stroke-width="1" fill="#ff7979" d="M113.0,28.0L113.0,.0L.0,.0L.0,28.0L113.0,28.0z" stroke="#101843"/><text style="fill:#191919;font-family:微软雅黑,PingFang SC,Microsoft YaHei,Arial;font-size:20px" xml:space="preserve"><tspan textLength="52.0" style="font-size:13px" x="30.5" y="19.5">玩家操作</tspan></text></g></g><g transform="translate(813.015264,273.964518)" id="group10"><path stroke-width="1" id="shape11" stroke="#101843" d="M.0,.0L125.7,.0L125.7,75.6L.0,75.6L.0,.0z" fill="none"/><g id="shape12"><path fill-rule="nonzero" stroke-width="1" fill="#ff7979" d="M125.7,28.0L125.7,.0L.0,.0L.0,28.0L125.7,28.0z" stroke="#101843"/><text style="fill:#191919;font-family:微软雅黑,PingFang SC,Microsoft YaHei,Arial;font-size:20px" xml:space="preserve"><tspan textLength="52.0" style="font-size:13px" x="36.9" y="19.5">玩家指令</tspan></text></g></g><g transform="translate(623.622047,308.528823)" id="shape13"><text style="fill:#191919;font-family:Symbol,PingFang SC,Microsoft YaHei,Arial;font-size:20px" xml:space="preserve"><tspan textLength="6.0" style="font-size:13px" x="11.5" y="19.0">·</tspan><tspan textLength="91.0" style="font-family:微软雅黑,PingFang SC,Microsoft YaHei,Arial;font-size:13px" x="17.5">操控手机陀螺仪</tspan></text></g><g transform="translate(805.324195,308.528823)" id="shape14"><text style="fill:#191919;font-family:Symbol,PingFang SC,Microsoft YaHei,Arial;font-size:20px" xml:space="preserve"><tspan textLength="6.0" style="font-size:13px" x="8.7" y="19.0">·</tspan><tspan textLength="116.0" style="font-family:微软雅黑,PingFang SC,Microsoft YaHei,Arial;font-size:13px" x="14.7">开始/继续/退出指令</tspan></text></g><g transform="translate(541.417323,386.170579)" id="group15"><path stroke-width="1" id="shape16" stroke="#101843" d="M.0,.0L113.0,.0L113.0,75.6L.0,75.6L.0,.0z" fill="none"/><g id="shape17"><path fill-rule="nonzero" stroke-width="1" fill="#66d8c7" d="M113.0,28.0L113.0,.0L.0,.0L.0,28.0L113.0,28.0z" stroke="#101843"/><text style="fill:#191919;font-family:微软雅黑,PingFang SC,Microsoft YaHei,Arial;font-size:20px" xml:space="preserve"><tspan textLength="52.0" style="font-size:13px" x="30.5" y="19.5">物理状态</tspan></text></g></g><g transform="translate(541.417323,411.234884)" id="shape18"><text style="fill:#191919;font-family:Symbol,PingFang SC,Microsoft YaHei,Arial;font-size:20px" xml:space="preserve"><tspan textLength="6.0" style="font-size:13px" x="4.0" y="19.0">·</tspan><tspan textLength="26.0" style="font-family:微软雅黑,PingFang SC,Microsoft YaHei,Arial;font-size:13px" x="10.0">速度</tspan><tspan textLength="6.0" style="font-size:13px" x="4.0" y="38.0">·</tspan><tspan textLength="79.0" style="font-family:微软雅黑,PingFang SC,Microsoft YaHei,Arial;font-size:13px" x="10.0">x轴、y轴位置</tspan></text></g><g transform="translate(275.846205,131.385827)" id="group19"><path stroke-width="1" id="shape20" stroke="#101843" d="M.0,.0L135.2,.0L135.2,83.7L.0,83.7L.0,.0z" fill="none"/><g id="shape21"><path fill-rule="nonzero" stroke-width="1" fill="#5fdaef" d="M135.2,28.0L135.2,.0L.0,.0L.0,28.0L135.2,28.0z" stroke="#101843"/><text style="fill:#191919;font-family:微软雅黑,PingFang SC,Microsoft YaHei,Arial;font-size:20px" xml:space="preserve"><tspan textLength="65.0" style="font-size:13px" x="35.1" y="19.5">游戏逻辑层</tspan></text></g></g><g transform="translate(412.940945,273.002527)" id="group22"><path stroke-width="1" id="shape23" stroke="#101843" d="M.0,.0L113.0,.0L113.0,75.6L.0,75.6L.0,.0z" fill="none"/><g id="shape24"><path fill-rule="nonzero" stroke-width="1" fill="#5fdaef" d="M113.0,28.0L113.0,.0L.0,.0L.0,28.0L113.0,28.0z" stroke="#101843"/><text style="fill:#191919;font-family:微软雅黑,PingFang SC,Microsoft YaHei,Arial;font-size:20px" xml:space="preserve"><tspan textLength="52.0" style="font-size:13px" x="30.5" y="19.5">玩家状态</tspan></text></g></g><g transform="translate(412.940945,302.593127)" id="shape25"><text style="fill:#191919;font-family:Symbol,PingFang SC,Microsoft YaHei,Arial;font-size:20px" xml:space="preserve"><tspan textLength="6.0" style="font-size:13px" x="4.5" y="19.0">·</tspan><tspan textLength="52.0" style="font-family:微软雅黑,PingFang SC,Microsoft YaHei,Arial;font-size:13px" x="10.5">物理状态</tspan><tspan textLength="6.0" style="font-size:13px" x="4.5" y="38.0">·</tspan><tspan textLength="52.0" style="font-family:微软雅黑,PingFang SC,Microsoft YaHei,Arial;font-size:13px" x="10.5">生命状态</tspan></text></g><g transform="translate(429.222669,386.170579)" id="group26"><path stroke-width="1" id="shape27" stroke="#101843" d="M.0,.0L76.2,.0L76.2,75.6L.0,75.6L.0,.0z" fill="none"/><g id="shape28"><path fill-rule="nonzero" stroke-width="1" fill="#66d8c7" d="M76.2,28.0L76.2,.0L.0,.0L.0,28.0L76.2,28.0z" stroke="#101843"/><text style="fill:#191919;font-family:微软雅黑,PingFang SC,Microsoft YaHei,Arial;font-size:20px" xml:space="preserve"><tspan textLength="52.0" style="font-size:13px" x="12.1" y="19.5">生命状态</tspan></text></g></g><g transform="translate(399.573811,418.375255)" id="shape29"><text style="fill:#191919;font-family:Symbol,PingFang SC,Microsoft YaHei,Arial;font-size:20px" xml:space="preserve"><tspan textLength="6.0" style="font-size:13px" x="37.5" y="19.0">·</tspan><tspan textLength="39.0" style="font-family:微软雅黑,PingFang SC,Microsoft YaHei,Arial;font-size:13px" x="43.5">生命值</tspan></text></g><g transform="translate(150.041003,273.513185)" id="group30"><path stroke-width="1" id="shape31" stroke="#101843" d="M.0,.0L146.0,.0L146.0,75.6L.0,75.6L.0,.0z" fill="none"/><g id="shape32"><path fill-rule="nonzero" stroke-width="1" fill="#5fdaef" d="M146.0,28.0L146.0,.0L.0,.0L.0,28.0L146.0,28.0z" stroke="#101843"/><text style="fill:#191919;font-family:微软雅黑,PingFang SC,Microsoft YaHei,Arial;font-size:20px" xml:space="preserve"><tspan textLength="52.0" style="font-size:13px" x="47.0" y="19.5">游戏条件</tspan></text></g></g><g transform="translate(150.041003,302.593127)" id="shape33"><text style="fill:#191919;font-family:Symbol,PingFang SC,Microsoft YaHei,Arial;font-size:20px" xml:space="preserve"><tspan textLength="6.0" style="font-size:13px" x="4.0" y="19.0">·</tspan><tspan textLength="122.0" style="font-family:微软雅黑,PingFang SC,Microsoft YaHei,Arial;font-size:13px" x="10.0">生命值>0可进行游戏</tspan><tspan textLength="6.0" style="font-size:13px" x="4.0" y="38.0">·</tspan><tspan textLength="109.0" style="font-family:微软雅黑,PingFang SC,Microsoft YaHei,Arial;font-size:13px" x="10.0">生命值≤0停止游戏</tspan></text></g><g transform="translate(417.177644,500.229659)" id="group34"><path stroke-width="1" id="shape35" stroke="#101843" d="M.0,.0L100.3,.0L100.3,75.6L.0,75.6L.0,.0z" fill="none"/><g id="shape36"><path fill-rule="nonzero" stroke-width="1" fill="#b3d04b" d="M100.3,28.0L100.3,.0L.0,.0L.0,28.0L100.3,28.0z" stroke="#101843"/><text style="fill:#191919;font-family:微软雅黑,PingFang SC,Microsoft YaHei,Arial;font-size:20px" xml:space="preserve"><tspan textLength="78.0" style="font-size:13px" x="11.1" y="19.5">数据与存储层</tspan></text></g></g><g transform="translate(400.573811,524.524959)" id="shape37"><text style="fill:#191919;font-family:Symbol,PingFang SC,Microsoft YaHei,Arial;font-size:20px" xml:space="preserve"><tspan textLength="6.0" style="font-size:13px" x="17.5" y="19.0">·</tspan><tspan textLength="78.0" style="font-family:微软雅黑,PingFang SC,Microsoft YaHei,Arial;font-size:13px" x="23.5">玩家当前状态</tspan></text></g><g transform="translate(400.573811,538.635888)" id="shape38"><text style="fill:#191919;font-family:Symbol,PingFang SC,Microsoft YaHei,Arial;font-size:20px" xml:space="preserve"><tspan textLength="6.0" style="font-size:13px" x="18.0" y="19.0">·</tspan><tspan textLength="78.0" style="font-family:微软雅黑,PingFang SC,Microsoft YaHei,Arial;font-size:13px" x="24.0">游戏数据记录</tspan></text></g><g transform="translate(333.161738,387.401550)" id="group39"><path stroke-width="1" id="shape40" stroke="#101843" d="M.0,.0L66.4,.0L66.4,75.6L.0,75.6L.0,.0z" fill="none"/><g id="shape41"><path fill-rule="nonzero" stroke-width="1" fill="#b3d04b" d="M66.4,28.0L66.4,.0L.0,.0L.0,28.0L66.4,28.0z" stroke="#101843"/><text style="fill:#191919;font-family:微软雅黑,PingFang SC,Microsoft YaHei,Arial;font-size:20px" xml:space="preserve"><tspan textLength="52.0" style="font-size:13px" x="7.2" y="19.5">游戏数据</tspan></text></g></g><g transform="translate(295.748031,411.234884)" id="shape42"><text style="fill:#191919;font-family:Symbol,PingFang SC,Microsoft YaHei,Arial;font-size:20px" xml:space="preserve"><tspan textLength="6.0" style="font-size:13px" x="44.0" y="19.0">·</tspan><tspan textLength="26.0" style="font-family:微软雅黑,PingFang SC,Microsoft YaHei,Arial;font-size:13px" x="50.0">时间</tspan><tspan textLength="6.0" style="font-size:13px" x="44.0" y="38.0">·</tspan><tspan textLength="26.0" style="font-family:微软雅黑,PingFang SC,Microsoft YaHei,Arial;font-size:13px" x="50.0">距离</tspan></text></g><g transform="translate(831.496063,387.401550)" id="group43"><path stroke-width="1" id="shape44" stroke="#101843" d="M.0,.0L100.3,.0L100.3,95.7L.0,95.7L.0,.0z" fill="none"/><g id="shape45"><path fill-rule="nonzero" stroke-width="1" fill="#fdff85" d="M100.3,28.0L100.3,.0L.0,.0L.0,28.0L100.3,28.0z" stroke="#101843"/><text style="fill:#191919;font-family:微软雅黑,PingFang SC,Microsoft YaHei,Arial;font-size:20px" xml:space="preserve"><tspan textLength="78.0" style="font-size:13px" x="11.1" y="19.5">渲染与界面层</tspan></text></g></g><g transform="translate(831.496063,419.599701)" id="shape46"><text style="fill:#191919;font-family:Symbol,PingFang SC,Microsoft YaHei,Arial;font-size:20px" xml:space="preserve"><tspan textLength="6.0" style="font-size:13px" x="4.0" y="19.0">·</tspan><tspan textLength="26.0" style="font-family:微软雅黑,PingFang SC,Microsoft YaHei,Arial;font-size:13px" x="10.0">背景</tspan><tspan textLength="6.0" style="font-size:13px" x="4.0" y="38.0">·</tspan><tspan textLength="26.0" style="font-family:微软雅黑,PingFang SC,Microsoft YaHei,Arial;font-size:13px" x="10.0">模型</tspan><tspan textLength="6.0" style="font-size:13px" x="4.0" y="57.0">·</tspan><tspan textLength="26.0" style="font-family:微软雅黑,PingFang SC,Microsoft YaHei,Arial;font-size:13px" x="10.0">界面</tspan></text></g><g transform="translate(856.543485,548.704700)" id="group47"><path stroke-width="1" id="shape48" stroke="#101843" d="M.0,.0L82.2,.0L82.2,51.3L.0,51.3L.0,.0z" fill="none"/><g id="shape49"><path fill-rule="nonzero" stroke-width="1" fill="#fbf64e" d="M82.2,28.0L82.2,.0L.0,.0L.0,28.0L82.2,28.0z" stroke="#101843"/><text style="fill:#191919;font-family:微软雅黑,PingFang SC,Microsoft YaHei,Arial;font-size:20px" xml:space="preserve"><tspan textLength="52.0" style="font-size:13px" x="15.1" y="19.5">游戏背景</tspan></text></g></g><g transform="translate(831.496063,574.325490)" id="shape50"><text style="fill:#191919;font-family:Symbol,PingFang SC,Microsoft YaHei,Arial;font-size:20px" xml:space="preserve"><tspan textLength="6.0" style="font-size:13px" x="31.0" y="19.0">·</tspan><tspan textLength="52.0" style="font-family:微软雅黑,PingFang SC,Microsoft YaHei,Arial;font-size:13px" x="37.0">水中背景</tspan></text></g><g transform="translate(704.602851,548.704700)" id="group51"><path stroke-width="1" id="shape52" stroke="#101843" d="M.0,.0L135.7,.0L135.7,95.7L.0,95.7L.0,.0z" fill="none"/><g id="shape53"><path fill-rule="nonzero" stroke-width="1" fill="#fbf64e" d="M135.7,28.0L135.7,.0L.0,.0L.0,28.0L135.7,28.0z" stroke="#101843"/><text style="fill:#191919;font-family:微软雅黑,PingFang SC,Microsoft YaHei,Arial;font-size:20px" xml:space="preserve"><tspan textLength="52.0" style="font-size:13px" x="41.8" y="19.5">游戏模型</tspan></text></g></g><g transform="translate(703.309889,570.689602)" id="shape54"><text style="fill:#191919;font-family:Symbol,PingFang SC,Microsoft YaHei,Arial;font-size:20px" xml:space="preserve"><tspan textLength="6.0" style="font-size:13px" x="4.1" y="19.0">·</tspan><tspan textLength="52.0" style="font-family:微软雅黑,PingFang SC,Microsoft YaHei,Arial;font-size:13px" x="10.1">玩家建模</tspan><tspan textLength="6.0" style="font-size:13px" x="4.1" y="38.0">·</tspan><tspan textLength="65.0" style="font-family:微软雅黑,PingFang SC,Microsoft YaHei,Arial;font-size:13px" x="10.1">障碍物模型</tspan><tspan textLength="6.0" style="font-size:13px" x="4.1" y="57.0">·</tspan><tspan textLength="117.0" style="font-family:微软雅黑,PingFang SC,Microsoft YaHei,Arial;font-size:13px" x="10.1">记录数据的字体样式</tspan></text></g><g transform="translate(951.496063,548.704700)" id="group55"><path stroke-width="1" id="shape56" stroke="#101843" d="M.0,.0L73.2,.0L73.2,95.7L.0,95.7L.0,.0z" fill="none"/><g id="shape57"><path fill-rule="nonzero" stroke-width="1" fill="#fbf64e" d="M73.2,28.0L73.2,.0L.0,.0L.0,28.0L73.2,28.0z" stroke="#101843"/><text style="fill:#191919;font-family:微软雅黑,PingFang SC,Microsoft YaHei,Arial;font-size:20px" xml:space="preserve"><tspan textLength="52.0" style="font-size:13px" x="10.6" y="19.5">游戏界面</tspan></text></g></g><g transform="translate(928.082423,574.325490)" id="shape58"><text style="fill:#191919;font-family:Symbol,PingFang SC,Microsoft YaHei,Arial;font-size:20px" xml:space="preserve"><tspan textLength="6.0" style="font-size:13px" x="31.0" y="19.0">·</tspan><tspan textLength="52.0" style="font-family:微软雅黑,PingFang SC,Microsoft YaHei,Arial;font-size:13px" x="37.0">开始界面</tspan><tspan textLength="6.0" style="font-size:13px" x="31.0" y="38.0">·</tspan><tspan textLength="52.0" style="font-family:微软雅黑,PingFang SC,Microsoft YaHei,Arial;font-size:13px" x="37.0">停止界面</tspan><tspan textLength="6.0" style="font-size:13px" x="31.0" y="57.0">·</tspan><tspan textLength="52.0" style="font-family:微软雅黑,PingFang SC,Microsoft YaHei,Arial;font-size:13px" x="37.0">退出界面</tspan></text></g><g transform="translate(469.425545,273.002527)" id="shape59"><path stroke-width="1" stroke="#191919" d="M.0,.0L.0,-31.0L-126.0,-31.0L-126.0,-51.0" fill="none" marker-end="url(#edrawArrow_4_1)"/><rect width="52.0" x="-65.8" height="19.0" fill="#ffffff" y="-40.5"/><text style="fill:#191919;font-family:微软雅黑,PingFang SC,Microsoft YaHei,Arial;font-size:20px" xml:space="preserve"><tspan textLength="52.0" style="font-size:13px" x="-65.8" y="-25.5">判断条件</tspan></text></g><g transform="translate(332.620720,215.131234)" id="shape60"><path stroke-width="1" stroke="#191919" d="M.0,.0L.0,29.0L-109.6,29.0L-109.6,51.5" fill="none" marker-end="url(#edrawArrow_4_1)"/><rect width="52.0" x="-99.0" height="19.0" fill="#ffffff" y="19.5"/><text style="fill:#191919;font-family:微软雅黑,PingFang SC,Microsoft YaHei,Arial;font-size:20px" xml:space="preserve"><tspan textLength="52.0" style="font-size:13px" x="-99.0" y="34.5">判断结果</tspan></text></g><g transform="translate(793.909100,228.066880)" id="shape61"><path stroke-width="1" stroke="#191919" d="M.0,.0L.0,26.9L82.0,26.9L82.0,38.9" fill="none" marker-end="url(#edrawArrow_4_1)"/><rect width="78.0" x="24.0" height="19.0" fill="#ffffff" y="16.5"/><text style="fill:#191919;font-family:微软雅黑,PingFang SC,Microsoft YaHei,Arial;font-size:20px" xml:space="preserve"><tspan textLength="78.0" style="font-size:13px" x="24.0" y="31.5">控制游戏状态</tspan></text></g><g transform="translate(767.926177,228.066880)" id="shape62"><path stroke-width="1" stroke="#191919" d="M.0,.0L.0,26.0L-80.8,26.0L-80.8,39.0" fill="none" marker-end="url(#edrawArrow_4_1)"/><rect width="78.0" x="-104.7" height="19.0" fill="#ffffff" y="16.5"/><text style="fill:#191919;font-family:微软雅黑,PingFang SC,Microsoft YaHei,Arial;font-size:20px" xml:space="preserve"><tspan textLength="78.0" style="font-size:13px" x="-104.7" y="31.5">控制游戏进程</tspan></text></g><g transform="translate(630.653047,311.759818)" id="shape63"><path stroke-width="1" stroke="#191919" d="M.0,.0L-98.1,.0" fill="none" marker-end="url(#edrawArrow_4_1)"/><rect width="26.0" x="-63.4" height="19.0" fill="#ffffff" y="-9.5"/><text style="fill:#191919;font-family:微软雅黑,PingFang SC,Microsoft YaHei,Arial;font-size:20px" xml:space="preserve"><tspan textLength="26.0" style="font-size:13px" x="-63.4" y="5.5">控制</tspan></text></g><g transform="translate(467.311795,348.593127)" id="shape64"><path stroke-width="1" stroke="#191919" d="M.0,.0L-0.0,32.0" fill="none" marker-end="url(#edrawArrow_4_1)"/><rect width="52.0" x="-25.0" height="19.0" fill="#ffffff" y="4.8"/><text style="fill:#191919;font-family:微软雅黑,PingFang SC,Microsoft YaHei,Arial;font-size:20px" xml:space="preserve"><tspan textLength="52.0" style="font-size:13px" x="-25.0" y="19.8">包含关系</tspan></text></g><g transform="translate(483.207663,348.593127)" id="shape65"><path stroke-width="1" stroke="#191919" d="M.0,.0L.0,27.4L103.4,27.4L103.4,31.6" fill="none" marker-end="url(#edrawArrow_4_1)"/></g><g transform="translate(467.311626,461.761179)" id="shape66"><path stroke-width="1" stroke="#191919" d="M.0,.0L.0,32.5" fill="none" marker-end="url(#edrawArrow_4_1)"/></g><g transform="translate(467.311626,461.761179)" id="shape67"><path stroke-width="1" stroke="#191919" d="" fill="none"/></g><g transform="translate(597.901923,461.761179)" id="shape68"><path stroke-width="1" stroke="#191919" d="M.0,.0L.0,29.6L-130.6,29.6L-130.6,32.5" fill="none" marker-end="url(#edrawArrow_4_1)"/></g><g transform="translate(366.367774,462.992150)" id="shape69"><path stroke-width="1" stroke="#191919" d="M.0,.0L.0,27.0L80.2,27.0L80.2,31.2" fill="none" marker-end="url(#edrawArrow_4_1)"/><rect width="26.0" x="18.2" height="19.0" fill="#ffffff" y="17.5"/><text style="fill:#191919;font-family:微软雅黑,PingFang SC,Microsoft YaHei,Arial;font-size:20px" xml:space="preserve"><tspan textLength="26.0" style="font-size:13px" x="18.2" y="32.5">记录</tspan></text></g><g transform="translate(467.311626,575.820259)" id="shape70"><path stroke-width="1" stroke="#191919" d="M.0,.0L.0,7.2L-150.8,7.2L-150.8,-265.0L-60.4,-265.0" fill="none" marker-end="url(#edrawArrow_4_1)"/><rect width="52.0" x="-139.7" height="19.0" fill="#ffffff" y="-274.5"/><text style="fill:#191919;font-family:微软雅黑,PingFang SC,Microsoft YaHei,Arial;font-size:20px" xml:space="preserve"><tspan textLength="52.0" style="font-size:13px" x="-139.7" y="-259.5">提供数据</tspan></text></g><g transform="translate(875.127339,349.555118)" id="shape71"><path stroke-width="1" stroke="#191919" d="M.0,6.0L.0,18.9L-206.2,18.9L-206.2,255.2L-652.8,255.2L-652.8,-0.5" fill="none" marker-start="url(#edrawArrow_4_1)"/><rect width="78.0" x="-505.0" height="19.0" fill="#ffffff" y="245.7"/><text style="fill:#191919;font-family:微软雅黑,PingFang SC,Microsoft YaHei,Arial;font-size:20px" xml:space="preserve"><tspan textLength="78.0" style="font-size:13px" x="-505.0" y="260.7">提供游戏状态</tspan></text></g><g transform="translate(897.645847,548.704700)" id="shape72"><path stroke-width="1" stroke="#191919" d="M.0,.0L.0,-58.7" fill="none" marker-end="url(#edrawArrow_4_1)"/><rect width="52.0" x="-25.0" height="19.0" fill="#ffffff" y="-34.7"/><text style="fill:#191919;font-family:微软雅黑,PingFang SC,Microsoft YaHei,Arial;font-size:20px" xml:space="preserve"><tspan textLength="52.0" style="font-size:13px" x="-25.0" y="-19.7">包含关系</tspan></text></g><g transform="translate(988.082423,548.704700)" id="shape73"><path stroke-width="1" stroke="#191919" d="M.0,.0L.0,-38.7L-90.4,-38.7L-90.4,-58.7" fill="none" marker-end="url(#edrawArrow_4_1)"/></g><g transform="translate(772.439521,548.704700)" id="shape74"><path stroke-width="1" stroke="#191919" d="M.0,.0L.0,-38.7L124.8,-38.7L124.8,-58.7" fill="none" marker-end="url(#edrawArrow_4_1)"/></g><g transform="translate(517.445608,538.024959)" id="shape75"><path stroke-width="1" stroke="#191919" d="M.0,.0L145.5,.0C145.5,-3.3,148.2,-6.0,151.5,-6.0C154.8,-6.0,157.5,-3.3,157.5,.0L186.5,.0L186.5,-102.8L308.1,-102.8" fill="none" marker-end="url(#edrawArrow_4_1)"/><rect width="39.0" x="214.6" height="19.0" fill="#ffffff" y="-112.3"/><text style="fill:#191919;font-family:微软雅黑,PingFang SC,Microsoft YaHei,Arial;font-size:20px" xml:space="preserve"><tspan textLength="39.0" style="font-size:13px" x="214.6" y="-97.3">相关联</tspan></text></g></g></svg>